# xmcd CD database file
#
# Track frame offsets:
#	150
#	20043
#	36848
#	58654
#
# Disc length: 1046 seconds
#
# Revision: 6
# Processed by: cddbd v1.5.2PL0 Copyright (c) Steve Scherf et al.
# Submitted via: CDex 1.70beta2
#
DISCID=30041404
DTITLE=765PRO ALLSTARS - THE IDOLM@STER ANIM@TION MASTER 01 READY!!
DYEAR=2011
DGENRE=Anime(J)
TTITLE0=READY!! (M@STER VERSION)
TTITLE1=おとなのはじまり
TTITLE2=おもいでのはじまり
TTITLE3=READY!! (M@STER VERSION) Instrumental
EXTD=YEAR: 2011
EXTT0=
EXTT1=
EXTT2=
EXTT3=
PLAYORDER=
